%TF.GenerationSoftware,KiCad,Pcbnew,(6.0.0-0)*%
%TF.CreationDate,2022-01-15T16:46:18+01:00*%
%TF.ProjectId,Power-Supply-2,506f7765-722d-4537-9570-706c792d322e,1*%
%TF.SameCoordinates,Original*%
%TF.FileFunction,Paste,Top*%
%TF.FilePolarity,Positive*%
%FSLAX46Y46*%
G04 Gerber Fmt 4.6, Leading zero omitted, Abs format (unit mm)*
G04 Created by KiCad (PCBNEW (6.0.0-0)) date 2022-01-15 16:46:18*
%MOMM*%
%LPD*%
G01*
G04 APERTURE LIST*
G04 Aperture macros list*
%AMRoundRect*
0 Rectangle with rounded corners*
0 $1 Rounding radius*
0 $2 $3 $4 $5 $6 $7 $8 $9 X,Y pos of 4 corners*
0 Add a 4 corners polygon primitive as box body*
4,1,4,$2,$3,$4,$5,$6,$7,$8,$9,$2,$3,0*
0 Add four circle primitives for the rounded corners*
1,1,$1+$1,$2,$3*
1,1,$1+$1,$4,$5*
1,1,$1+$1,$6,$7*
1,1,$1+$1,$8,$9*
0 Add four rect primitives between the rounded corners*
20,1,$1+$1,$2,$3,$4,$5,0*
20,1,$1+$1,$4,$5,$6,$7,0*
20,1,$1+$1,$6,$7,$8,$9,0*
20,1,$1+$1,$8,$9,$2,$3,0*%
G04 Aperture macros list end*
%ADD10RoundRect,0.200000X-0.200000X-0.275000X0.200000X-0.275000X0.200000X0.275000X-0.200000X0.275000X0*%
%ADD11RoundRect,0.200000X0.200000X0.275000X-0.200000X0.275000X-0.200000X-0.275000X0.200000X-0.275000X0*%
%ADD12RoundRect,0.200000X0.275000X-0.200000X0.275000X0.200000X-0.275000X0.200000X-0.275000X-0.200000X0*%
%ADD13RoundRect,0.225000X-0.250000X0.225000X-0.250000X-0.225000X0.250000X-0.225000X0.250000X0.225000X0*%
%ADD14RoundRect,0.225000X0.250000X-0.225000X0.250000X0.225000X-0.250000X0.225000X-0.250000X-0.225000X0*%
%ADD15RoundRect,0.200000X-0.275000X0.200000X-0.275000X-0.200000X0.275000X-0.200000X0.275000X0.200000X0*%
%ADD16RoundRect,0.225000X-0.225000X-0.250000X0.225000X-0.250000X0.225000X0.250000X-0.225000X0.250000X0*%
%ADD17RoundRect,0.225000X0.225000X0.250000X-0.225000X0.250000X-0.225000X-0.250000X0.225000X-0.250000X0*%
%ADD18RoundRect,0.218750X0.256250X-0.218750X0.256250X0.218750X-0.256250X0.218750X-0.256250X-0.218750X0*%
%ADD19RoundRect,0.250000X-0.650000X0.325000X-0.650000X-0.325000X0.650000X-0.325000X0.650000X0.325000X0*%
%ADD20RoundRect,0.250000X-0.450000X0.262500X-0.450000X-0.262500X0.450000X-0.262500X0.450000X0.262500X0*%
%ADD21RoundRect,0.250000X-0.262500X-0.450000X0.262500X-0.450000X0.262500X0.450000X-0.262500X0.450000X0*%
%ADD22RoundRect,0.075000X-0.075000X0.662500X-0.075000X-0.662500X0.075000X-0.662500X0.075000X0.662500X0*%
%ADD23RoundRect,0.075000X-0.662500X0.075000X-0.662500X-0.075000X0.662500X-0.075000X0.662500X0.075000X0*%
%ADD24RoundRect,0.250000X-0.325000X-0.650000X0.325000X-0.650000X0.325000X0.650000X-0.325000X0.650000X0*%
%ADD25RoundRect,0.250000X0.325000X0.650000X-0.325000X0.650000X-0.325000X-0.650000X0.325000X-0.650000X0*%
%ADD26R,1.700000X1.300000*%
%ADD27R,1.300000X1.700000*%
%ADD28RoundRect,0.250000X0.262500X0.450000X-0.262500X0.450000X-0.262500X-0.450000X0.262500X-0.450000X0*%
%ADD29RoundRect,0.150000X-0.825000X-0.150000X0.825000X-0.150000X0.825000X0.150000X-0.825000X0.150000X0*%
%ADD30R,0.650000X1.220000*%
%ADD31R,1.200000X1.200000*%
%ADD32RoundRect,0.150000X-0.150000X0.512500X-0.150000X-0.512500X0.150000X-0.512500X0.150000X0.512500X0*%
%ADD33R,1.220000X0.650000*%
%ADD34RoundRect,0.250000X0.475000X-0.250000X0.475000X0.250000X-0.475000X0.250000X-0.475000X-0.250000X0*%
%ADD35R,1.700000X0.900000*%
%ADD36RoundRect,0.250000X0.625000X-0.312500X0.625000X0.312500X-0.625000X0.312500X-0.625000X-0.312500X0*%
%ADD37RoundRect,0.150000X0.825000X0.150000X-0.825000X0.150000X-0.825000X-0.150000X0.825000X-0.150000X0*%
%ADD38RoundRect,0.218750X-0.218750X-0.381250X0.218750X-0.381250X0.218750X0.381250X-0.218750X0.381250X0*%
G04 APERTURE END LIST*
D10*
%TO.C,R45*%
X173622500Y-132067500D03*
X175272500Y-132067500D03*
%TD*%
D11*
%TO.C,R35*%
X228612500Y-88570000D03*
X226962500Y-88570000D03*
%TD*%
%TO.C,R24*%
X215595000Y-85395000D03*
X213945000Y-85395000D03*
%TD*%
%TO.C,R40*%
X215277500Y-88570000D03*
X213627500Y-88570000D03*
%TD*%
%TO.C,R33*%
X228930000Y-85395000D03*
X227280000Y-85395000D03*
%TD*%
%TO.C,R32*%
X232105000Y-85395000D03*
X230455000Y-85395000D03*
%TD*%
D12*
%TO.C,R30*%
X230645000Y-76060000D03*
X230645000Y-74410000D03*
%TD*%
D11*
%TO.C,R21*%
X218770000Y-85395000D03*
X217120000Y-85395000D03*
%TD*%
D12*
%TO.C,R19*%
X217310000Y-76060000D03*
X217310000Y-74410000D03*
%TD*%
D13*
%TO.C,C29*%
X219215000Y-97002500D03*
X219215000Y-98552500D03*
%TD*%
D14*
%TO.C,C28*%
X232550000Y-76010000D03*
X232550000Y-74460000D03*
%TD*%
%TO.C,C11*%
X219215000Y-76010000D03*
X219215000Y-74460000D03*
%TD*%
%TO.C,C8*%
X159842500Y-134430000D03*
X159842500Y-132880000D03*
%TD*%
D15*
%TO.C,R28*%
X175400000Y-125527500D03*
X175400000Y-127177500D03*
%TD*%
D10*
%TO.C,R27*%
X163780000Y-123495000D03*
X165430000Y-123495000D03*
%TD*%
%TO.C,R25*%
X163780000Y-125717500D03*
X165430000Y-125717500D03*
%TD*%
%TO.C,R23*%
X178385000Y-122860000D03*
X180035000Y-122860000D03*
%TD*%
%TO.C,R18*%
X163780000Y-127940000D03*
X165430000Y-127940000D03*
%TD*%
D12*
%TO.C,R17*%
X161430000Y-132830000D03*
X161430000Y-134480000D03*
%TD*%
D10*
%TO.C,R12*%
X160287500Y-125717500D03*
X161937500Y-125717500D03*
%TD*%
D12*
%TO.C,R10*%
X178892500Y-131940000D03*
X178892500Y-130290000D03*
%TD*%
D11*
%TO.C,R8*%
X175272500Y-130480000D03*
X173622500Y-130480000D03*
%TD*%
D16*
%TO.C,C22*%
X167640000Y-122542500D03*
X169190000Y-122542500D03*
%TD*%
%TO.C,C21*%
X171450000Y-122542500D03*
X173000000Y-122542500D03*
%TD*%
D17*
%TO.C,C20*%
X154585000Y-122542500D03*
X153035000Y-122542500D03*
%TD*%
D12*
%TO.C,R16*%
X213692500Y-118605000D03*
X213692500Y-116955000D03*
%TD*%
D11*
%TO.C,R11*%
X233057500Y-125717500D03*
X231407500Y-125717500D03*
%TD*%
%TO.C,R6*%
X233057500Y-127940000D03*
X231407500Y-127940000D03*
%TD*%
D12*
%TO.C,R4*%
X238582500Y-136067500D03*
X238582500Y-134417500D03*
%TD*%
D10*
%TO.C,R3*%
X227915000Y-127940000D03*
X229565000Y-127940000D03*
%TD*%
D11*
%TO.C,R2*%
X236550000Y-127940000D03*
X234900000Y-127940000D03*
%TD*%
D16*
%TO.C,C19*%
X236220000Y-117145000D03*
X237770000Y-117145000D03*
%TD*%
D14*
%TO.C,C4*%
X240170000Y-136017500D03*
X240170000Y-134467500D03*
%TD*%
D15*
%TO.C,R38*%
X237947500Y-102110000D03*
X237947500Y-103760000D03*
%TD*%
%TO.C,R44*%
X215087500Y-102032500D03*
X215087500Y-103682500D03*
%TD*%
%TO.C,R43*%
X217310000Y-102032500D03*
X217310000Y-103682500D03*
%TD*%
%TO.C,R42*%
X212865000Y-102032500D03*
X212865000Y-103682500D03*
%TD*%
%TO.C,R41*%
X210642500Y-102032500D03*
X210642500Y-103682500D03*
%TD*%
%TO.C,R39*%
X188735000Y-64885000D03*
X188735000Y-66535000D03*
%TD*%
%TO.C,R36*%
X202705000Y-64885000D03*
X202705000Y-66535000D03*
%TD*%
%TO.C,R14*%
X208420000Y-102032500D03*
X208420000Y-103682500D03*
%TD*%
D18*
%TO.C,D11*%
X215087500Y-106820000D03*
X215087500Y-105245000D03*
%TD*%
%TO.C,D10*%
X217310000Y-106820000D03*
X217310000Y-105245000D03*
%TD*%
%TO.C,D9*%
X212865000Y-106820000D03*
X212865000Y-105245000D03*
%TD*%
%TO.C,D8*%
X210642500Y-106820000D03*
X210642500Y-105245000D03*
%TD*%
%TO.C,D7*%
X208420000Y-106820000D03*
X208420000Y-105245000D03*
%TD*%
D19*
%TO.C,C6*%
X158090000Y-127735000D03*
X158090000Y-130685000D03*
%TD*%
D20*
%TO.C,R1*%
X238582500Y-125757500D03*
X238582500Y-127582500D03*
%TD*%
D21*
%TO.C,R5*%
X240527500Y-127622500D03*
X242352500Y-127622500D03*
%TD*%
D22*
%TO.C,U2*%
X226727500Y-102505000D03*
X226227500Y-102505000D03*
X225727500Y-102505000D03*
X225227500Y-102505000D03*
X224727500Y-102505000D03*
X224227500Y-102505000D03*
X223727500Y-102505000D03*
X223227500Y-102505000D03*
X222727500Y-102505000D03*
X222227500Y-102505000D03*
X221727500Y-102505000D03*
X221227500Y-102505000D03*
D23*
X219815000Y-103917500D03*
X219815000Y-104417500D03*
X219815000Y-104917500D03*
X219815000Y-105417500D03*
X219815000Y-105917500D03*
X219815000Y-106417500D03*
X219815000Y-106917500D03*
X219815000Y-107417500D03*
X219815000Y-107917500D03*
X219815000Y-108417500D03*
X219815000Y-108917500D03*
X219815000Y-109417500D03*
D22*
X221227500Y-110830000D03*
X221727500Y-110830000D03*
X222227500Y-110830000D03*
X222727500Y-110830000D03*
X223227500Y-110830000D03*
X223727500Y-110830000D03*
X224227500Y-110830000D03*
X224727500Y-110830000D03*
X225227500Y-110830000D03*
X225727500Y-110830000D03*
X226227500Y-110830000D03*
X226727500Y-110830000D03*
D23*
X228140000Y-109417500D03*
X228140000Y-108917500D03*
X228140000Y-108417500D03*
X228140000Y-107917500D03*
X228140000Y-107417500D03*
X228140000Y-106917500D03*
X228140000Y-106417500D03*
X228140000Y-105917500D03*
X228140000Y-105417500D03*
X228140000Y-104917500D03*
X228140000Y-104417500D03*
X228140000Y-103917500D03*
%TD*%
D24*
%TO.C,C1*%
X238695000Y-129845000D03*
X241645000Y-129845000D03*
%TD*%
D20*
%TO.C,R7*%
X158128000Y-123979500D03*
X158128000Y-125804500D03*
%TD*%
D25*
%TO.C,C7*%
X176875000Y-134607500D03*
X173925000Y-134607500D03*
%TD*%
D24*
%TO.C,C3*%
X224407500Y-133972500D03*
X227357500Y-133972500D03*
%TD*%
D26*
%TO.C,D2*%
X174130000Y-120482500D03*
X174130000Y-116982500D03*
%TD*%
%TO.C,D3*%
X231915000Y-89995000D03*
X231915000Y-93495000D03*
%TD*%
D24*
%TO.C,C2*%
X238695000Y-132385000D03*
X241645000Y-132385000D03*
%TD*%
D27*
%TO.C,D1*%
X222745000Y-116510000D03*
X219245000Y-116510000D03*
%TD*%
D19*
%TO.C,C5*%
X160630000Y-127735000D03*
X160630000Y-130685000D03*
%TD*%
D28*
%TO.C,R31*%
X232192500Y-82855000D03*
X230367500Y-82855000D03*
%TD*%
D29*
%TO.C,U6*%
X144350000Y-64440000D03*
X144350000Y-65710000D03*
X144350000Y-66980000D03*
X144350000Y-68250000D03*
X149300000Y-68250000D03*
X149300000Y-66980000D03*
X149300000Y-65710000D03*
X149300000Y-64440000D03*
%TD*%
D26*
%TO.C,D4*%
X218580000Y-89995000D03*
X218580000Y-93495000D03*
%TD*%
%TO.C,D12*%
X230962500Y-99605000D03*
X230962500Y-96105000D03*
%TD*%
D30*
%TO.C,Q2*%
X176355000Y-120360000D03*
X178255000Y-120360000D03*
X177305000Y-117740000D03*
%TD*%
D16*
%TO.C,C30*%
X218757500Y-100317500D03*
X220307500Y-100317500D03*
%TD*%
D31*
%TO.C,D6*%
X187240000Y-120300000D03*
X181340000Y-120300000D03*
X181340000Y-117800000D03*
X187240000Y-117800000D03*
%TD*%
D14*
%TO.C,C31*%
X219215000Y-112205000D03*
X219215000Y-110655000D03*
%TD*%
D28*
%TO.C,R9*%
X236637500Y-125717500D03*
X234812500Y-125717500D03*
%TD*%
D31*
%TO.C,D5*%
X205020000Y-120300000D03*
X199120000Y-120300000D03*
X199120000Y-117800000D03*
X205020000Y-117800000D03*
%TD*%
D17*
%TO.C,C33*%
X226975000Y-100317500D03*
X225425000Y-100317500D03*
%TD*%
D28*
%TO.C,R34*%
X232192500Y-87935000D03*
X230367500Y-87935000D03*
%TD*%
D32*
%TO.C,U9*%
X232230000Y-78542500D03*
X231280000Y-78542500D03*
X230330000Y-78542500D03*
X230330000Y-80817500D03*
X232230000Y-80817500D03*
%TD*%
D33*
%TO.C,Q4*%
X236082500Y-103885000D03*
X236082500Y-101985000D03*
X233462500Y-102935000D03*
%TD*%
D34*
%TO.C,C34*%
X228740000Y-100315000D03*
X228740000Y-98415000D03*
%TD*%
D21*
%TO.C,R15*%
X225035500Y-116764000D03*
X226860500Y-116764000D03*
%TD*%
D28*
%TO.C,R20*%
X218857500Y-82855000D03*
X217032500Y-82855000D03*
%TD*%
D29*
%TO.C,U7*%
X167845000Y-124447500D03*
X167845000Y-125717500D03*
X167845000Y-126987500D03*
X167845000Y-128257500D03*
X172795000Y-128257500D03*
X172795000Y-126987500D03*
X172795000Y-125717500D03*
X172795000Y-124447500D03*
%TD*%
D14*
%TO.C,C32*%
X226517500Y-114427500D03*
X226517500Y-112877500D03*
%TD*%
D28*
%TO.C,R37*%
X218857500Y-87935000D03*
X217032500Y-87935000D03*
%TD*%
D35*
%TO.C,SW1*%
X216040000Y-95442500D03*
X216040000Y-98842500D03*
%TD*%
D30*
%TO.C,Q5*%
X215720000Y-90435000D03*
X213820000Y-90435000D03*
X214770000Y-93055000D03*
%TD*%
D32*
%TO.C,U5*%
X218895000Y-78410000D03*
X217945000Y-78410000D03*
X216995000Y-78410000D03*
X216995000Y-80685000D03*
X218895000Y-80685000D03*
%TD*%
D30*
%TO.C,Q3*%
X229055000Y-90435000D03*
X227155000Y-90435000D03*
X228105000Y-93055000D03*
%TD*%
D36*
%TO.C,R29*%
X228105000Y-81142500D03*
X228105000Y-78217500D03*
%TD*%
D17*
%TO.C,C12*%
X231737500Y-104127500D03*
X230187500Y-104127500D03*
%TD*%
D37*
%TO.C,U10*%
X226452500Y-98730000D03*
X226452500Y-97460000D03*
X226452500Y-96190000D03*
X226452500Y-94920000D03*
X221502500Y-94920000D03*
X221502500Y-96190000D03*
X221502500Y-97460000D03*
X221502500Y-98730000D03*
%TD*%
D21*
%TO.C,R22*%
X174805000Y-122860000D03*
X176630000Y-122860000D03*
%TD*%
D36*
%TO.C,R13*%
X214770000Y-81142500D03*
X214770000Y-78217500D03*
%TD*%
D30*
%TO.C,Q1*%
X215600000Y-119407500D03*
X217500000Y-119407500D03*
X216550000Y-116787500D03*
%TD*%
D38*
%TO.C,L5*%
X228630000Y-102222500D03*
X230755000Y-102222500D03*
%TD*%
D20*
%TO.C,R26*%
X176987500Y-130202500D03*
X176987500Y-132027500D03*
%TD*%
M02*
