%TF.GenerationSoftware,KiCad,Pcbnew,(6.0.0-0)*%
%TF.CreationDate,2022-01-15T16:46:20+01:00*%
%TF.ProjectId,Power-Supply-2,506f7765-722d-4537-9570-706c792d322e,1*%
%TF.SameCoordinates,Original*%
%TF.FileFunction,Profile,NP*%
%FSLAX46Y46*%
G04 Gerber Fmt 4.6, Leading zero omitted, Abs format (unit mm)*
G04 Created by KiCad (PCBNEW (6.0.0-0)) date 2022-01-15 16:46:20*
%MOMM*%
%LPD*%
G01*
G04 APERTURE LIST*
%TA.AperFunction,Profile*%
%ADD10C,0.050000*%
%TD*%
%TA.AperFunction,Profile*%
%ADD11C,0.038100*%
%TD*%
G04 APERTURE END LIST*
D10*
X22000000Y-62500000D02*
X246000000Y-62500000D01*
D11*
X27000000Y-65000000D02*
G75*
G03*
X26000000Y-65000000I-500000J0D01*
G01*
X26000000Y-71500000D02*
G75*
G03*
X27000000Y-71500000I500000J0D01*
G01*
D10*
X18000000Y-133500000D02*
G75*
G03*
X22000000Y-137500000I4000000J0D01*
G01*
X250000000Y-66500000D02*
G75*
G03*
X246000000Y-62500000I-4000000J0D01*
G01*
D11*
X136000000Y-71500000D02*
X136000000Y-65000000D01*
D10*
X22000000Y-62500000D02*
G75*
G03*
X18000000Y-66500000I0J-4000000D01*
G01*
D11*
X137500000Y-71000000D02*
X163000000Y-70968000D01*
X136000000Y-71500000D02*
G75*
G03*
X136500000Y-72000000I500001J1D01*
G01*
X136500000Y-72000000D02*
X163000000Y-71968000D01*
D10*
X18000000Y-133500000D02*
X18000000Y-66500000D01*
D11*
X27000000Y-71500000D02*
X27000000Y-65000000D01*
X137000000Y-70500000D02*
X137000000Y-65000000D01*
X26000000Y-71500000D02*
X26000000Y-65000000D01*
X137000000Y-70500000D02*
G75*
G03*
X137500000Y-71000000I500001J1D01*
G01*
D10*
X246000000Y-137500000D02*
X22000000Y-137500000D01*
X246000000Y-137500000D02*
G75*
G03*
X250000000Y-133500000I0J4000000D01*
G01*
D11*
X137000000Y-65000000D02*
G75*
G03*
X136000000Y-65000000I-500000J0D01*
G01*
X163000000Y-71968000D02*
G75*
G03*
X163000000Y-70968000I0J500000D01*
G01*
D10*
X250000000Y-66500000D02*
X250000000Y-133500000D01*
M02*
