M48
; DRILL file {KiCad (6.0.0-0)} date 2022 January 15, Saturday 16:46:22
; FORMAT={-:-/ absolute / inch / decimal}
; #@! TF.CreationDate,2022-01-15T16:46:22+01:00
; #@! TF.GenerationSoftware,Kicad,Pcbnew,(6.0.0-0)
; #@! TF.FileFunction,MixedPlating,1,2
FMAT,2
INCH
; #@! TA.AperFunction,Plated,PTH,ViaDrill
T1C0.0118
; #@! TA.AperFunction,Plated,PTH,ViaDrill
T2C0.0157
; #@! TA.AperFunction,Plated,PTH,ComponentDrill
T3C0.0276
; #@! TA.AperFunction,Plated,PTH,ComponentDrill
T4C0.0354
; #@! TA.AperFunction,Plated,PTH,ComponentDrill
T5C0.0394
; #@! TA.AperFunction,Plated,PTH,ComponentDrill
T6C0.0433
; #@! TA.AperFunction,Plated,PTH,ComponentDrill
T7C0.0469
; #@! TA.AperFunction,Plated,PTH,ComponentDrill
T8C0.0472
; #@! TA.AperFunction,Plated,PTH,ComponentDrill
T9C0.0512
; #@! TA.AperFunction,Plated,PTH,ComponentDrill
T10C0.0591
; #@! TA.AperFunction,Plated,PTH,ComponentDrill
T11C0.0669
; #@! TA.AperFunction,Plated,PTH,ComponentDrill
T12C0.1260
; #@! TA.AperFunction,NonPlated,NPTH,ComponentDrill
T13C0.0454
; #@! TA.AperFunction,NonPlated,NPTH,ComponentDrill
T14C0.1063
; #@! TA.AperFunction,NonPlated,NPTH,ComponentDrill
T15C0.1260
; #@! TA.AperFunction,NonPlated,NPTH,ComponentDrill
T16C0.1378
; #@! TA.AperFunction,NonPlated,NPTH,ComponentDrill
T17C0.1772
%
G90
G05
T1
X5.743Y-2.687
X5.818Y-2.587
X5.818Y-2.637
X5.818Y-2.687
X6.199Y-5.112
X6.249Y-5.112
X6.293Y-5.3245
X6.299Y-5.112
X6.318Y-4.362
X6.349Y-5.112
X6.3555Y-5.3245
X6.4816Y-5.037
X6.6555Y-4.9995
X6.7055Y-4.8245
X6.7555Y-5.0495
X7.0055Y-4.362
X7.018Y-4.7745
X7.043Y-5.1619
X7.0566Y-4.837
X7.1555Y-5.287
X7.1805Y-4.287
X7.5555Y-4.837
X7.6805Y-4.837
X8.143Y-4.162
X8.143Y-4.262
X8.168Y-4.287
X8.2055Y-4.2495
X8.293Y-4.2495
X8.3805Y-2.812
X8.3805Y-2.912
X8.4131Y-4.562
X8.418Y-3.5995
X8.443Y-3.487
X8.4545Y-3.362
X8.493Y-3.5995
X8.5055Y-3.7245
X8.5555Y-2.8995
X8.5631Y-4.737
X8.5795Y-3.362
X8.5805Y-3.1245
X8.6305Y-3.787
X8.6305Y-4.4408
X8.639Y-3.9495
X8.7055Y-3.9495
X8.7055Y-4.212
X8.7055Y-4.2495
X8.7055Y-4.287
X8.7555Y-4.1995
X8.768Y-4.087
X8.7805Y-3.3745
X8.7805Y-3.4495
X8.7924Y-4.1123
X8.793Y-4.1995
X8.8055Y-3.4745
X8.818Y-4.0995
X8.8305Y-4.1995
X8.843Y-4.912
X8.843Y-4.9495
X8.843Y-4.987
X8.852Y-2.7393
X8.8555Y-2.862
X8.8555Y-4.087
X8.8805Y-2.7588
X8.8805Y-2.837
X8.9055Y-4.312
X8.9095Y-3.9495
X8.918Y-4.4785
X8.9305Y-4.112
X8.9305Y-4.1745
X8.943Y-3.5995
X8.968Y-3.487
X8.9805Y-3.362
X9.0045Y-5.037
X9.018Y-3.5995
X9.018Y-3.837
X9.0805Y-2.8995
X9.0805Y-4.287
X9.097Y-4.0995
X9.1045Y-3.362
X9.1055Y-3.1245
X9.142Y-4.9495
X9.142Y-5.037
X9.2555Y-4.012
X9.293Y-4.062
X9.343Y-3.3495
X9.368Y-4.0536
X9.393Y-4.187
X9.5055Y-5.362
X9.5805Y-5.0245
T2
X0.8555Y-5.112
X6.1305Y-4.8245
X6.918Y-5.2995
X7.0055Y-5.2995
X7.3255Y-4.737
X7.4255Y-4.737
X8.0055Y-4.312
X8.0255Y-4.637
X8.1055Y-4.212
X8.1255Y-4.637
X8.1805Y-2.937
X8.1805Y-2.987
X8.1805Y-3.037
X8.6305Y-3.037
X8.793Y-5.2495
X8.793Y-5.2995
X8.8555Y-3.0745
X8.8555Y-3.287
X8.8555Y-3.737
X9.068Y-3.6245
X9.093Y-3.837
X9.1555Y-3.037
X9.2555Y-4.612
X9.468Y-5.087
X9.468Y-5.137
X9.468Y-5.187
X9.468Y-5.237
T4
X6.6555Y-4.7317
X6.7555Y-4.7317
X8.647Y-4.7066
X8.7233Y-3.5455
X8.7233Y-3.6455
X8.747Y-4.7066
X9.2483Y-3.5455
X9.2483Y-3.6455
T5
X7.5555Y-2.5995
X7.6555Y-2.5995
X7.7555Y-2.5995
X7.8555Y-2.5995
X8.3311Y-4.3872
X8.3311Y-4.4872
X8.4311Y-4.3872
X8.4311Y-4.4872
X8.5311Y-4.3872
X8.5311Y-4.4872
X9.193Y-4.2495
X9.193Y-4.3495
X9.193Y-4.4495
X9.293Y-4.2495
X9.293Y-4.3495
X9.293Y-4.4495
T6
X6.0555Y-4.7317
X6.3555Y-4.7317
X6.449Y-5.137
X6.499Y-5.2866
X6.549Y-5.137
X6.599Y-5.2866
X6.649Y-5.137
X6.699Y-5.2866
X6.749Y-5.137
X8.7233Y-2.9455
X8.7233Y-3.2455
X8.999Y-5.1315
X9.047Y-4.7066
X9.049Y-5.2811
X9.099Y-5.1315
X9.149Y-5.2811
X9.199Y-5.1315
X9.2483Y-2.9455
X9.2483Y-3.2455
X9.249Y-5.2811
X9.299Y-5.1315
X9.347Y-4.7066
T7
X9.2775Y-3.8026
X9.2775Y-3.9026
T8
X7.6055Y-4.9237
X7.6055Y-5.219
X8.3055Y-4.905
X8.3055Y-5.2003
T9
X1.1501Y-2.712
X2.0359Y-2.712
X2.2251Y-2.712
X3.1109Y-2.712
X3.293Y-2.712
X4.1788Y-2.712
X4.3751Y-2.712
X5.2609Y-2.712
T10
X1.963Y-3.137
X2.213Y-4.437
X2.713Y-3.137
X2.713Y-4.437
X4.3646Y-3.137
X4.6146Y-4.437
X5.1146Y-3.137
X5.1146Y-4.437
X6.1555Y-3.137
X6.4055Y-4.437
X6.9055Y-3.137
X6.9055Y-4.437
X7.2555Y-3.137
X7.5055Y-4.437
X8.0055Y-3.137
X8.0055Y-4.437
T11
X0.8839Y-3.0223
X0.8839Y-3.1782
X0.8839Y-3.3342
X0.9252Y-4.181
X0.9252Y-4.3369
X0.9252Y-4.4928
X0.9252Y-4.6487
X0.9252Y-4.8046
X0.9252Y-4.9605
X6.3268Y-2.6772
X6.4827Y-2.6772
X6.6386Y-2.6772
X6.7945Y-2.6772
X6.9504Y-2.6772
X7.1063Y-2.6772
X8.2724Y-2.6772
X8.4283Y-2.6772
X8.5843Y-2.6772
X8.7402Y-2.6772
X8.9811Y-2.6772
X9.137Y-2.6772
X9.2929Y-2.6772
X9.4488Y-2.6772
X9.624Y-2.9945
X9.624Y-3.1504
X9.624Y-3.3063
X9.624Y-3.4622
X9.624Y-3.7031
X9.624Y-3.8591
X9.624Y-4.015
X9.624Y-4.1709
X9.626Y-4.4118
X9.626Y-4.5677
X9.626Y-4.7236
X9.626Y-4.8795
T12
X0.9291Y-5.2343
T13
X0.9252Y-4.0157
X9.5866Y-2.8543
X9.6654Y-5.0394
T14
X1.593Y-2.712
X2.668Y-2.712
X3.7359Y-2.712
X4.818Y-2.712
T15
X0.9291Y-2.685
X5.4882Y-2.685
X5.4882Y-5.2343
X6.063Y-2.6181
X6.063Y-5.2559
X9.685Y-2.6181
X9.685Y-5.2559
T16
X6.599Y-5.8732
X9.149Y-5.8677
T17
X2.3055Y-4.187
X4.7555Y-4.187
T3
G00X1.2154Y-5.287
M15
G01X1.1957Y-5.287
M16
G05
G00X1.3154Y-3.087
M15
G01X1.2957Y-3.087
M16
G05
G00X1.4154Y-5.287
M15
G01X1.3957Y-5.287
M16
G05
G00X1.5154Y-3.087
M15
G01X1.4957Y-3.087
M16
G05
G00X3.1154Y-3.087
M15
G01X3.0957Y-3.087
M16
G05
G00X3.2154Y-5.287
M15
G01X3.1957Y-5.287
M16
G05
G00X3.3154Y-3.087
M15
G01X3.2957Y-3.087
M16
G05
G00X3.4154Y-5.287
M15
G01X3.3957Y-5.287
M16
G05
G00X3.6654Y-5.287
M15
G01X3.6457Y-5.287
M16
G05
G00X3.7654Y-3.087
M15
G01X3.7457Y-3.087
M16
G05
G00X3.8654Y-5.287
M15
G01X3.8457Y-5.287
M16
G05
G00X3.9654Y-3.087
M15
G01X3.9457Y-3.087
M16
G05
G00X5.5654Y-3.087
M15
G01X5.5457Y-3.087
M16
G05
G00X5.6654Y-5.287
M15
G01X5.6457Y-5.287
M16
G05
G00X5.7654Y-3.087
M15
G01X5.7457Y-3.087
M16
G05
G00X5.8654Y-5.287
M15
G01X5.8457Y-5.287
M16
G05
T0
M30
